# xmcd CD database file
#
# Track frame offsets:
#	150
#	18658
#	35861
#	54151
#	69241
#	85265
#	103224
#	107379
#	127165
#
# Disc length: 1892 seconds
#
# Revision: 0
# Processed by: cddbd v1.5.2PL0 Copyright (c) Steve Scherf et al.
# Submitted via: CDex 1.75
#
DISCID=76076209
DTITLE=Jon Batiste - Chronology Of A Dream: Live At The Village Vanguard
DYEAR=2019
DGENRE=Jazz
TTITLE0=BLACCK 
TTITLE1=PRINCE 
TTITLE2=HIGHER 
TTITLE3=PWWR 
TTITLE4=BIRTHE 
TTITLE5=KENNER 
TTITLE6=STORY 
TTITLE7=SOULFUL 
TTITLE8=ORDR 
EXTD=YEAR: 2019
EXTT0=
EXTT1=
EXTT2=
EXTT3=
EXTT4=
EXTT5=
EXTT6=
EXTT7=
EXTT8=
PLAYORDER=
